# xmcd CD database file
#
# Track frame offsets:
#	150
#	16422
#	27447
#	38400
#	49275
#	64800
#	74418
#	86568
#	100365
#	112455
#	125655
#	139527
#	153552
#	166452
#	185052
#	198102
#	208827
#
# Disc length: 2970 seconds
#
# Revision: 0
# Processed by: cddbd v1.5.2PL0 Copyright (c) Steve Scherf et al.
# Submitted via: CDex 1.70beta2
#
DISCID=fe0b9811
DTITLE=George Jones and Tammy Wynette - Together   
DYEAR=1998
DGENRE=Country
TTITLE0=My Elusive Dreams
TTITLE1=(We're Not) The Jet Set
TTITLE2=A Pair Of Old Sneakers
TTITLE3=After The Fire Is Gone
TTITLE4=All I Have To Of fer You Is Me
TTITLE5=Did You Ever
TTITLE6=God's Gonna Getcha (For That)
TTITLE7=Golden Ring
TTITLE8=It's An Old Love Thing
TTITLE9=Let's Build A World Together
TTITLE10=(She's Just) An Old Love Turned Memory
TTITLE11=Will You Travel Down This Road With Me
TTITLE12=Old Fashioned Singing
TTITLE13=One
TTITLE14=Southern California
TTITLE15=Take Me
TTITLE16=The Ceremony
EXTD=YEAR: 1998
EXTT0=
EXTT1=
EXTT2=
EXTT3=
EXTT4=
EXTT5=
EXTT6=
EXTT7=
EXTT8=
EXTT9=
EXTT10=
EXTT11=
EXTT12=
EXTT13=
EXTT14=
EXTT15=
EXTT16=
PLAYORDER=
